<svg
            width="447"
            height="24"
            viewBox="0 0 447 24"
            fill="none"
            xmlns="http://www.w3.org/2000/svg"
          >
            <path
              d="M348 21L343.65 16.65M346 11C346 15.4183 342.418 19 338 19C333.582 19 330 15.4183 330 11C330 6.58172 333.582 3 338 3C342.418 3 346 6.58172 346 11Z"
              stroke="#1B281B"
              stroke-width="1.5"
              stroke-linecap="round"
              stroke-linejoin="round"
            />
            <path
              d="M383.4 3H379.6C379.04 3 378.76 3 378.546 3.10899C378.358 3.20487 378.205 3.35785 378.109 3.54601C378 3.75992 378 4.03995 378 4.6V8.4C378 8.96005 378 9.24008 378.109 9.45399C378.205 9.64215 378.358 9.79513 378.546 9.89101C378.76 10 379.04 10 379.6 10H383.4C383.96 10 384.24 10 384.454 9.89101C384.642 9.79513 384.795 9.64215 384.891 9.45399C385 9.24008 385 8.96005 385 8.4V4.6C385 4.03995 385 3.75992 384.891 3.54601C384.795 3.35785 384.642 3.20487 384.454 3.10899C384.24 3 383.96 3 383.4 3Z"
              stroke="#1B281B"
              stroke-width="1.5"
              stroke-linecap="round"
              stroke-linejoin="round"
            />
            <path
              d="M394.4 3H390.6C390.04 3 389.76 3 389.546 3.10899C389.358 3.20487 389.205 3.35785 389.109 3.54601C389 3.75992 389 4.03995 389 4.6V8.4C389 8.96005 389 9.24008 389.109 9.45399C389.205 9.64215 389.358 9.79513 389.546 9.89101C389.76 10 390.04 10 390.6 10H394.4C394.96 10 395.24 10 395.454 9.89101C395.642 9.79513 395.795 9.64215 395.891 9.45399C396 9.24008 396 8.96005 396 8.4V4.6C396 4.03995 396 3.75992 395.891 3.54601C395.795 3.35785 395.642 3.20487 395.454 3.10899C395.24 3 394.96 3 394.4 3Z"
              stroke="#1B281B"
              stroke-width="1.5"
              stroke-linecap="round"
              stroke-linejoin="round"
            />
            <path
              d="M394.4 14H390.6C390.04 14 389.76 14 389.546 14.109C389.358 14.2049 389.205 14.3578 389.109 14.546C389 14.7599 389 15.0399 389 15.6V19.4C389 19.9601 389 20.2401 389.109 20.454C389.205 20.6422 389.358 20.7951 389.546 20.891C389.76 21 390.04 21 390.6 21H394.4C394.96 21 395.24 21 395.454 20.891C395.642 20.7951 395.795 20.6422 395.891 20.454C396 20.2401 396 19.9601 396 19.4V15.6C396 15.0399 396 14.7599 395.891 14.546C395.795 14.3578 395.642 14.2049 395.454 14.109C395.24 14 394.96 14 394.4 14Z"
              stroke="#1B281B"
              stroke-width="1.5"
              stroke-linecap="round"
              stroke-linejoin="round"
            />
            <path
              d="M383.4 14H379.6C379.04 14 378.76 14 378.546 14.109C378.358 14.2049 378.205 14.3578 378.109 14.546C378 14.7599 378 15.0399 378 15.6V19.4C378 19.9601 378 20.2401 378.109 20.454C378.205 20.6422 378.358 20.7951 378.546 20.891C378.76 21 379.04 21 379.6 21H383.4C383.96 21 384.24 21 384.454 20.891C384.642 20.7951 384.795 20.6422 384.891 20.454C385 20.2401 385 19.9601 385 19.4V15.6C385 15.0399 385 14.7599 384.891 14.546C384.795 14.3578 384.642 14.2049 384.454 14.109C384.24 14 383.96 14 383.4 14Z"
              stroke="#1B281B"
              stroke-width="1.5"
              stroke-linecap="round"
              stroke-linejoin="round"
            />
            <path
              d="M433 6C433 7.40007 433.367 8.77571 434.065 9.98947C434.762 11.2032 435.767 12.2126 436.977 12.9167C438.187 13.6208 439.561 13.995 440.961 14.0019C442.361 14.0088 443.738 13.6482 444.955 12.956C444.474 18.03 440.2 22 435 22C429.477 22 425 17.523 425 12C425 6.8 428.97 2.526 434.044 2.045C433.357 3.24988 432.998 4.61323 433 6ZM427 12C427 14.1217 427.843 16.1566 429.343 17.6569C430.843 19.1571 432.878 20 435 20C436.414 20.0005 437.802 19.6265 439.024 18.916C440.246 18.2054 441.258 17.1838 441.957 15.955C441.64 15.985 441.321 16 441 16C435.477 16 431 11.523 431 6C431 5.67933 431.015 5.36033 431.045 5.043C429.816 5.74185 428.795 6.75381 428.084 7.97585C427.374 9.1979 426.999 10.5864 427 12ZM441.164 2.291L442 2.5V3.5L441.164 3.709C440.812 3.79693 440.491 3.97875 440.235 4.23503C439.979 4.4913 439.797 4.8124 439.709 5.164L439.5 6H438.5L438.291 5.164C438.203 4.8124 438.021 4.4913 437.765 4.23503C437.509 3.97875 437.188 3.79693 436.836 3.709L436 3.5V2.5L436.836 2.291C437.187 2.20291 437.508 2.02102 437.764 1.76475C438.02 1.50849 438.202 1.18748 438.29 0.836L438.5 0H439.5L439.709 0.836C439.797 1.1876 439.979 1.5087 440.235 1.76497C440.491 2.02125 440.812 2.20307 441.164 2.291ZM446.164 7.291L447 7.5V8.5L446.164 8.709C445.812 8.79693 445.491 8.97875 445.235 9.23503C444.979 9.4913 444.797 9.8124 444.709 10.164L444.5 11H443.5L443.291 10.164C443.203 9.8124 443.021 9.4913 442.765 9.23503C442.509 8.97875 442.188 8.79693 441.836 8.709L441 8.5V7.5L441.836 7.291C442.188 7.20307 442.509 7.02125 442.765 6.76497C443.021 6.5087 443.203 6.1876 443.291 5.836L443.5 5H444.5L444.709 5.836C444.797 6.1876 444.979 6.5087 445.235 6.76497C445.491 7.02125 445.812 7.20307 446.164 7.291Z"
              fill="black"
            />
          </svg>
