<svg width="447" height="24" viewBox="0 0 447 24" fill="none" xmlns="http://www.w3.org/2000/svg">
<path d="M348 21L343.65 16.65M346 11C346 15.4183 342.418 19 338 19C333.582 19 330 15.4183 330 11C330 6.58172 333.582 3 338 3C342.418 3 346 6.58172 346 11Z" stroke="white" stroke-width="1.5" stroke-linecap="round" stroke-linejoin="round"/>
<path d="M383.4 3H379.6C379.04 3 378.76 3 378.546 3.10899C378.358 3.20487 378.205 3.35785 378.109 3.54601C378 3.75992 378 4.03995 378 4.6V8.4C378 8.96005 378 9.24008 378.109 9.45399C378.205 9.64215 378.358 9.79513 378.546 9.89101C378.76 10 379.04 10 379.6 10H383.4C383.96 10 384.24 10 384.454 9.89101C384.642 9.79513 384.795 9.64215 384.891 9.45399C385 9.24008 385 8.96005 385 8.4V4.6C385 4.03995 385 3.75992 384.891 3.54601C384.795 3.35785 384.642 3.20487 384.454 3.10899C384.24 3 383.96 3 383.4 3Z" stroke="white" stroke-width="1.5" stroke-linecap="round" stroke-linejoin="round"/>
<path d="M394.4 3H390.6C390.04 3 389.76 3 389.546 3.10899C389.358 3.20487 389.205 3.35785 389.109 3.54601C389 3.75992 389 4.03995 389 4.6V8.4C389 8.96005 389 9.24008 389.109 9.45399C389.205 9.64215 389.358 9.79513 389.546 9.89101C389.76 10 390.04 10 390.6 10H394.4C394.96 10 395.24 10 395.454 9.89101C395.642 9.79513 395.795 9.64215 395.891 9.45399C396 9.24008 396 8.96005 396 8.4V4.6C396 4.03995 396 3.75992 395.891 3.54601C395.795 3.35785 395.642 3.20487 395.454 3.10899C395.24 3 394.96 3 394.4 3Z" stroke="white" stroke-width="1.5" stroke-linecap="round" stroke-linejoin="round"/>
<path d="M394.4 14H390.6C390.04 14 389.76 14 389.546 14.109C389.358 14.2049 389.205 14.3578 389.109 14.546C389 14.7599 389 15.0399 389 15.6V19.4C389 19.9601 389 20.2401 389.109 20.454C389.205 20.6422 389.358 20.7951 389.546 20.891C389.76 21 390.04 21 390.6 21H394.4C394.96 21 395.24 21 395.454 20.891C395.642 20.7951 395.795 20.6422 395.891 20.454C396 20.2401 396 19.9601 396 19.4V15.6C396 15.0399 396 14.7599 395.891 14.546C395.795 14.3578 395.642 14.2049 395.454 14.109C395.24 14 394.96 14 394.4 14Z" stroke="white" stroke-width="1.5" stroke-linecap="round" stroke-linejoin="round"/>
<path d="M383.4 14H379.6C379.04 14 378.76 14 378.546 14.109C378.358 14.2049 378.205 14.3578 378.109 14.546C378 14.7599 378 15.0399 378 15.6V19.4C378 19.9601 378 20.2401 378.109 20.454C378.205 20.6422 378.358 20.7951 378.546 20.891C378.76 21 379.04 21 379.6 21H383.4C383.96 21 384.24 21 384.454 20.891C384.642 20.7951 384.795 20.6422 384.891 20.454C385 20.2401 385 19.9601 385 19.4V15.6C385 15.0399 385 14.7599 384.891 14.546C384.795 14.3578 384.642 14.2049 384.454 14.109C384.24 14 383.96 14 383.4 14Z" stroke="white" stroke-width="1.5" stroke-linecap="round" stroke-linejoin="round"/>
<g clip-path="url(#clip0_5_2346)">
<path d="M434.25 3.75V1.5C434.25 1.30109 434.329 1.11032 434.47 0.96967C434.61 0.829018 434.801 0.75 435 0.75C435.199 0.75 435.39 0.829018 435.53 0.96967C435.671 1.11032 435.75 1.30109 435.75 1.5V3.75C435.75 3.94891 435.671 4.13968 435.53 4.28033C435.39 4.42098 435.199 4.5 435 4.5C434.801 4.5 434.61 4.42098 434.47 4.28033C434.329 4.13968 434.25 3.94891 434.25 3.75ZM441 12C441 13.1867 440.648 14.3467 439.989 15.3334C439.33 16.3201 438.392 17.0892 437.296 17.5433C436.2 17.9974 434.993 18.1162 433.829 17.8847C432.666 17.6532 431.596 17.0818 430.757 16.2426C429.918 15.4035 429.347 14.3344 429.115 13.1705C428.884 12.0067 429.003 10.8003 429.457 9.7039C429.911 8.60754 430.68 7.67047 431.667 7.01118C432.653 6.35189 433.813 6 435 6C436.591 6.00174 438.116 6.63444 439.241 7.75928C440.366 8.88412 440.998 10.4092 441 12ZM439.5 12C439.5 11.11 439.236 10.24 438.742 9.49993C438.247 8.75991 437.544 8.18314 436.722 7.84254C435.9 7.50195 434.995 7.41283 434.122 7.58647C433.249 7.7601 432.447 8.18868 431.818 8.81802C431.189 9.44736 430.76 10.2492 430.586 11.1221C430.413 11.995 430.502 12.8998 430.843 13.7221C431.183 14.5443 431.76 15.2471 432.5 15.7416C433.24 16.2361 434.11 16.5 435 16.5C436.193 16.4988 437.337 16.0243 438.181 15.1806C439.024 14.337 439.499 13.1931 439.5 12ZM428.469 6.53063C428.61 6.67136 428.801 6.75042 429 6.75042C429.199 6.75042 429.39 6.67136 429.531 6.53062C429.671 6.38989 429.75 6.19902 429.75 6C429.75 5.80098 429.671 5.61011 429.531 5.46938L428.031 3.96938C427.89 3.82864 427.699 3.74958 427.5 3.74958C427.301 3.74958 427.11 3.82864 426.969 3.96938C426.829 4.11011 426.75 4.30098 426.75 4.5C426.75 4.69902 426.829 4.88989 426.969 5.03062L428.469 6.53063ZM428.469 17.4694L426.969 18.9694C426.829 19.1101 426.75 19.301 426.75 19.5C426.75 19.699 426.829 19.8899 426.969 20.0306C427.11 20.1714 427.301 20.2504 427.5 20.2504C427.699 20.2504 427.89 20.1714 428.031 20.0306L429.531 18.5306C429.6 18.4609 429.656 18.3782 429.693 18.2872C429.731 18.1961 429.75 18.0985 429.75 18C429.75 17.9015 429.731 17.8039 429.693 17.7128C429.656 17.6218 429.6 17.5391 429.531 17.4694C429.461 17.3997 429.378 17.3444 429.287 17.3067C429.196 17.269 429.099 17.2496 429 17.2496C428.901 17.2496 428.804 17.269 428.713 17.3067C428.622 17.3444 428.539 17.3997 428.469 17.4694ZM441 6.75C441.099 6.75008 441.196 6.73074 441.287 6.6931C441.378 6.65546 441.461 6.60025 441.531 6.53063L443.031 5.03062C443.171 4.88989 443.25 4.69902 443.25 4.5C443.25 4.30098 443.171 4.11011 443.031 3.96938C442.89 3.82864 442.699 3.74958 442.5 3.74958C442.301 3.74958 442.11 3.82864 441.969 3.96938L440.469 5.46938C440.364 5.57427 440.293 5.70796 440.264 5.85352C440.235 5.99908 440.25 6.14998 440.307 6.28709C440.363 6.42421 440.46 6.54139 440.583 6.62379C440.706 6.70619 440.852 6.75012 441 6.75ZM441.531 17.4694C441.39 17.3286 441.199 17.2496 441 17.2496C440.801 17.2496 440.61 17.3286 440.469 17.4694C440.329 17.6101 440.25 17.801 440.25 18C440.25 18.199 440.329 18.3899 440.469 18.5306L441.969 20.0306C442.039 20.1003 442.122 20.1556 442.213 20.1933C442.304 20.231 442.401 20.2504 442.5 20.2504C442.599 20.2504 442.696 20.231 442.787 20.1933C442.878 20.1556 442.961 20.1003 443.031 20.0306C443.1 19.9609 443.156 19.8782 443.193 19.7872C443.231 19.6961 443.25 19.5985 443.25 19.5C443.25 19.4015 443.231 19.3039 443.193 19.2128C443.156 19.1218 443.1 19.0391 443.031 18.9694L441.531 17.4694ZM427.5 12C427.5 11.8011 427.421 11.6103 427.28 11.4697C427.14 11.329 426.949 11.25 426.75 11.25H424.5C424.301 11.25 424.11 11.329 423.97 11.4697C423.829 11.6103 423.75 11.8011 423.75 12C423.75 12.1989 423.829 12.3897 423.97 12.5303C424.11 12.671 424.301 12.75 424.5 12.75H426.75C426.949 12.75 427.14 12.671 427.28 12.5303C427.421 12.3897 427.5 12.1989 427.5 12ZM435 19.5C434.801 19.5 434.61 19.579 434.47 19.7197C434.329 19.8603 434.25 20.0511 434.25 20.25V22.5C434.25 22.6989 434.329 22.8897 434.47 23.0303C434.61 23.171 434.801 23.25 435 23.25C435.199 23.25 435.39 23.171 435.53 23.0303C435.671 22.8897 435.75 22.6989 435.75 22.5V20.25C435.75 20.0511 435.671 19.8603 435.53 19.7197C435.39 19.579 435.199 19.5 435 19.5ZM445.5 11.25H443.25C443.051 11.25 442.86 11.329 442.72 11.4697C442.579 11.6103 442.5 11.8011 442.5 12C442.5 12.1989 442.579 12.3897 442.72 12.5303C442.86 12.671 443.051 12.75 443.25 12.75H445.5C445.699 12.75 445.89 12.671 446.03 12.5303C446.171 12.3897 446.25 12.1989 446.25 12C446.25 11.8011 446.171 11.6103 446.03 11.4697C445.89 11.329 445.699 11.25 445.5 11.25Z" fill="white"/>
</g>
<defs>
<clipPath id="clip0_5_2346">
<rect width="24" height="24" fill="white" transform="translate(423)"/>
</clipPath>
</defs>
</svg>
